<svg xmlns="http://www.w3.org/2000/svg" width="32" height="34"><path d="M146 21h32v34h-32z" style="fill:none" transform="translate(-146 -21)"/><path d="M147 28h30v1h1v19h-1v1h-30v-1h-1V29h1z" style="fill:#fff;isolation:isolate;opacity:.2" transform="translate(-146 -21)"/><path d="M156.6 33h-.6c-.3.3-.3.7 0 1l4.7 4.7-4.7 4.7c-.3.3-.3.7 0 1s.7.3 1 0l4.7-4.7 4.7 4.7c.3.3.7.3 1 0s.3-.7 0-1l-4.7-4.7 4.7-4.7c.3-.3.3-.7 0-1s-.7-.3-1 0l-4.7 4.7L157 33h-.6z" style="fill:#fff" transform="translate(-146 -21)"/></svg>