<svg xmlns="http://www.w3.org/2000/svg" width="32" height="34"><path d="M26 21h32v34H26z" style="fill:none" transform="translate(-26 -21)"/><path d="M27 28h30v1h1v19h-1v1H27v-1h-1V29h1z" style="fill:#85363d" transform="translate(-26 -21)"/><path d="M27 47V30h1v-1h28v1h1v17h-1v1H28v-1z" style="fill:#c6505b" transform="translate(-26 -21)"/><path d="M37.2 33h-.6c-.3.3-.3.7 0 1l4.7 4.7-4.7 4.7c-.3.3-.3.7 0 1s.7.3 1 0l4.7-4.7 4.7 4.7c.3.3.7.3 1 0s.3-.7 0-1l-4.7-4.7L48 34c.3-.3.3-.7 0-1s-.7-.3-1 0l-4.7 4.7-4.7-4.7H37z" style="fill:#fff" transform="translate(-26 -21)"/></svg>