<svg xmlns="http://www.w3.org/2000/svg" width="32" height="34"><path d="M107 110h30v1h1v19h-1v1h-30v-1h-1v-19h1z" style="fill:#716384" transform="translate(-106 -103)"/><path d="M107 129v-17h1v-1h28v1h1v17h-1v1h-28v-1z" style="fill:#937ea9" transform="translate(-106 -103)"/><path d="M106 103h32v34h-32z" style="fill:none" transform="translate(-106 -103)"/><path d="M117.1 119.8h9.2c.4 0 .7.3.7.7s-.3.7-.7.7h-9.2c-.4 0-.7-.3-.7-.7s.3-.7.7-.7" style="fill:#fff" transform="translate(-106 -103)"/></svg>