<svg xmlns="http://www.w3.org/2000/svg" width="32" height="34"><path d="M296 124h32v34h-32z" style="fill:none" transform="translate(-296 -124)"/><path d="M304.5 131h15c1.4 0 2.5 1.1 2.5 2.5v15c0 1.4-1.1 2.5-2.5 2.5h-15c-1.4 0-2.5-1.1-2.5-2.5v-15c0-1.4 1.1-2.5 2.5-2.5" style="fill:#fff;isolation:isolate;opacity:.2" transform="translate(-296 -124)"/><path d="M312 135c-3.3 0-6 2.7-6 6s2.7 6 6 6 6-2.7 6-6-2.7-6-6-6m0 1c2.8 0 5 2.2 5 5s-2.2 5-5 5-5-2.2-5-5 2.2-5 5-5" style="fill:#fff;opacity:.8;isolation:isolate" transform="translate(-296 -124)"/></svg>