/* XPM */
static char *bottom_right_inactive[] = {
/* columns rows colors chars-per-pixel */
"15 15 3 1 ",
"  c None",
". c gray20 s inactive_color_1",
"X c #343434",
/* pixels */
"            ...",
"            ...",
"            ...",
"            ...",
"            ...",
"            ...",
"            ...",
"            ...",
"            ...",
"            ...",
"            ...",
"            ...",
"...............",
"...............",
".............X "
};
