/* XPM */
static char *top_left_inactive[] = {
/* columns rows colors chars-per-pixel */
"18 51 4 1 ",
"  c None",
". c #323232",
"X c gray20 s inactive_color_1",
"o c #343434",
/* pixels */
" o..........o.....",
"o...............oo",
"..................",
"..................",
"...........o......",
"...........o......",
".....o......oo....",
"oo.....o..........",
"...........ooo....",
"...........o....o.",
"................o.",
".....oo...........",
"oo................",
".....o............",
".........oo.......",
"..............o...",
".o....o...........",
".o....o...........",
"..........o.....oo",
"..........o....o..",
".........oo....o..",
"..................",
"..................",
"..ooo.............",
"..........o...o...",
"...o......o.......",
"....oo............",
"................o.",
"........oo...o....",
".............o....",
"..................",
"...oo.............",
"..................",
"oo................",
"....oo....o.......",
"..........o....o..",
"..................",
"o.................",
"....o....o......oo",
"....o....o...oo...",
"......o....oo.....",
".o....o...........",
"..................",
"..................",
"..................",
"............o.....",
"...o......oo......",
"...ooo..........o.",
"...........oo.....",
"o............o....",
" o................"
};
