<svg xmlns="http://www.w3.org/2000/svg" width="32" height="34"><path d="M106 21h32v34h-32z" style="fill:none" transform="translate(-106 -21)"/><path d="M107 28h30v1h1v19h-1v1h-30v-1h-1V29h1z" style="fill:#845555" transform="translate(-106 -21)"/><path d="M107 47V30h1v-1h28v1h1v17h-1v1h-28v-1z" style="fill:#ce8382" transform="translate(-106 -21)"/><path d="M116.6 33h-.6c-.3.3-.3.7 0 1l4.7 4.7-4.7 4.7c-.3.3-.3.7 0 1s.7.3 1 0l4.7-4.7 4.7 4.7c.3.3.7.3 1 0s.3-.7 0-1l-4.7-4.7 4.7-4.7c.3-.3.3-.7 0-1s-.7-.3-1 0l-4.7 4.7L117 33h-.6z" style="fill:#fff" transform="translate(-106 -21)"/></svg>