<svg xmlns="http://www.w3.org/2000/svg" width="32" height="34"><path d="M107 69h30v1h1v19h-1v1h-30v-1h-1V70h1z" style="fill:#716384" transform="translate(-106 -62)"/><path d="M107 88V71h1v-1h28v1h1v17h-1v1h-28v-1z" style="fill:#937ea9" transform="translate(-106 -62)"/><path d="M106 62h32v34h-32z" style="fill:none" transform="translate(-106 -62)"/><path d="M116.8 77.4v5.2c0 1.4 1.2 2.6 2.6 2.6h5.2c1.4 0 2.6-1.2 2.6-2.6v-5.2c0-1.4-1.2-2.6-2.6-2.6h-5.2c-1.4 0-2.6 1.2-2.6 2.6m2.6-1.3h5.2c.8 0 1.3.5 1.3 1.3v5.2c0 .8-.5 1.3-1.3 1.3h-5.2c-.8 0-1.3-.5-1.3-1.3v-5.2c0-.8.5-1.3 1.3-1.3" style="fill:#fff" transform="translate(-106 -62)"/></svg>