<svg xmlns="http://www.w3.org/2000/svg" width="32" height="34"><path d="M147 151h30v1h1v19h-1v1h-30v-1h-1v-19h1z" style="fill:#fff;isolation:isolate;opacity:.2" transform="translate(-146 -144)"/><path d="M146 144h32v34h-32z" style="fill:none" transform="translate(-146 -144)"/><path d="M160 159c-1.1 0-2 .9-2 2v2c0 1.1.9 2 2 2h2c1.1 0 2-.9 2-2v-2c0-1.1-.9-2-2-2zm0 1h2c.6 0 1 .4 1 1v2c0 .6-.4 1-1 1h-2c-.6 0-1-.4-1-1v-2c0-.6.4-1 1-1" style="fill:#fff" transform="translate(-146 -144)"/><path d="M162 157c-1.1 0-2 .9-2 2h1c0-.6.4-1 1-1h2c.6 0 1 .4 1 1v2c0 .6-.4 1-1 1v1c1.1 0 2-.9 2-2v-2c0-1.1-.9-2-2-2z" style="fill:#fff;isolation:isolate;opacity:.3" transform="translate(-146 -144)"/></svg>