<svg xmlns="http://www.w3.org/2000/svg" width="32" height="34"><path d="M67 69h30v1h1v19h-1v1H67v-1h-1V70h1z" style="fill:#6d5b84" transform="translate(-66 -62)"/><path d="M67 88V71h1v-1h28v1h1v17h-1v1H68v-1z" style="fill:#856c9f" transform="translate(-66 -62)"/><path d="M66 62h32v34H66z" style="fill:none" transform="translate(-66 -62)"/><path d="M76.8 77.4v5.2c0 1.4 1.2 2.6 2.6 2.6h5.2c1.4 0 2.6-1.2 2.6-2.6v-5.2c0-1.4-1.2-2.6-2.6-2.6h-5.2c-1.4 0-2.6 1.2-2.6 2.6m2.6-1.3h5.2c.8 0 1.3.5 1.3 1.3v5.2c0 .8-.5 1.3-1.3 1.3h-5.2c-.8 0-1.3-.5-1.3-1.3v-5.2c0-.8.5-1.3 1.3-1.3" style="fill:#fff" transform="translate(-66 -62)"/></svg>