<svg xmlns="http://www.w3.org/2000/svg" width="32" height="34"><path d="M146 62h32v34h-32z" style="fill:none" transform="translate(-146 -62)"/><path d="M156.4 77.4v5.2c0 1.4 1.2 2.6 2.6 2.6h5.2c1.4 0 2.6-1.2 2.6-2.6v-5.2c0-1.4-1.2-2.6-2.6-2.6H159c-1.4 0-2.6 1.2-2.6 2.6m2.7-1.3h5.2c.8 0 1.3.5 1.3 1.3v5.2c0 .8-.5 1.3-1.3 1.3h-5.2c-.8 0-1.3-.5-1.3-1.3v-5.2c0-.8.5-1.3 1.3-1.3" style="fill:#fff" transform="translate(-146 -62)"/><path d="M147 69h30v1h1v19h-1v1h-30v-1h-1V70h1z" style="fill:#fff;isolation:isolate;opacity:.2" transform="translate(-146 -62)"/></svg>