<?xml version="1.0" encoding="UTF-8" standalone="no"?>
<svg
   xmlns:dc="http://purl.org/dc/elements/1.1/"
   xmlns:cc="http://creativecommons.org/ns#"
   xmlns:rdf="http://www.w3.org/1999/02/22-rdf-syntax-ns#"
   xmlns:svg="http://www.w3.org/2000/svg"
   xmlns="http://www.w3.org/2000/svg"
   xmlns:sodipodi="http://sodipodi.sourceforge.net/DTD/sodipodi-0.dtd"
   xmlns:inkscape="http://www.inkscape.org/namespaces/inkscape"
   id="Foreground"
   width="26"
   height="26"
   enable-background="new 0 0 16 16"
   version="1.0"
   viewBox="0 0 18.909 18.909"
   sodipodi:docname="close-active.svg"
   inkscape:version="1.0.2 (e86c870879, 2021-01-15)">
  <metadata
     id="metadata16">
    <rdf:RDF>
      <cc:Work
         rdf:about="">
        <dc:format>image/svg+xml</dc:format>
        <dc:type
           rdf:resource="http://purl.org/dc/dcmitype/StillImage" />
        <dc:title></dc:title>
      </cc:Work>
    </rdf:RDF>
  </metadata>
  <sodipodi:namedview
     pagecolor="#ffffff"
     bordercolor="#666666"
     borderopacity="1"
     objecttolerance="10"
     gridtolerance="10"
     guidetolerance="10"
     inkscape:pageopacity="0"
     inkscape:pageshadow="2"
     inkscape:window-width="1920"
     inkscape:window-height="996"
     id="namedview14"
     showgrid="true"
     inkscape:zoom="11.327307"
     inkscape:cx="7.5795109"
     inkscape:cy="11.016082"
     inkscape:window-x="0"
     inkscape:window-y="0"
     inkscape:window-maximized="1"
     inkscape:current-layer="close-prelight">
    <inkscape:grid
       type="xygrid"
       id="grid865" />
  </sodipodi:namedview>
  <defs
     id="defs5">
    <filter
       id="filter839"
       x="-.048"
       y="-.048"
       width="1.096"
       height="1.096"
       color-interpolation-filters="sRGB">
      <feGaussianBlur
         stdDeviation="0.32"
         id="feGaussianBlur2" />
    </filter>
  </defs>
  <circle
     cx="9.4545"
     cy="10.182"
     r="8"
     fill="#000000"
     filter="url(#filter839)"
     opacity=".1"
     stroke-width="0"
     id="circle7" />
  <g
     id="close-prelight"
     transform="matrix(0.72726923,0,0,0.72726923,-32.733381,-35.200386)">
    <path
       id="path24091-60-6"
       class="st2"
       d="m 46.008615,50.400764 h 24 v 1 h 1 v 20 h -1 v 1 h -24 v -1 h -1 v -20 h 1 z"
       sodipodi:nodetypes="ccccccccccccc"
       style="fill:#bf2642;fill-opacity:1" />
    <path
       id="path24091-7-6-1"
       style="fill:#000000;fill-opacity:0.35"
       d="m 46.008615,50.400764 v 1 h -1 v 20 h 1 v 1 h 24 v -1 h 1 v -20 h -1 v -1 z m 1,1 h 22 v 1 h 1 v 18 h -1 v 1 h -22 v -1 h -1 v -18 h 1 z"
       sodipodi:nodetypes="cccccccccccccccccccccccccc" />
    <path
       id="path2869-3-9"
       class="st4"
       d="m 52.909605,55.992677 h -0.6 c -0.3,0.3 -0.3,0.7 0,1 l 4.7,4.7 -4.7,4.7 c -0.3,0.3 -0.3,0.7 0,1 0.3,0.3 0.7,0.3 1,0 l 4.7,-4.7 4.7,4.7 c 0.3,0.3 0.7,0.3 1,0 0.3,-0.3 0.3,-0.7 0,-1 l -4.7,-4.7 4.7,-4.7 c 0.3,-0.3 0.3,-0.7 0,-1 -0.3,-0.3 -0.7,-0.3 -1,0 l -4.7,4.7 -4.7,-4.7 h -0.6 z"
       sodipodi:nodetypes="ccscssscssscssscccc"
       style="fill:#ffffff;fill-opacity:1" />
  </g>
</svg>
