<?xml version="1.0" encoding="UTF-8" standalone="no"?>
<svg
   xmlns:dc="http://purl.org/dc/elements/1.1/"
   xmlns:cc="http://creativecommons.org/ns#"
   xmlns:rdf="http://www.w3.org/1999/02/22-rdf-syntax-ns#"
   xmlns:svg="http://www.w3.org/2000/svg"
   xmlns="http://www.w3.org/2000/svg"
   xmlns:sodipodi="http://sodipodi.sourceforge.net/DTD/sodipodi-0.dtd"
   xmlns:inkscape="http://www.inkscape.org/namespaces/inkscape"
   id="Foreground"
   width="26"
   height="26"
   enable-background="new 0 0 16 16"
   version="1.0"
   viewBox="0 0 18.909 18.909"
   sodipodi:docname="close-hover.svg"
   inkscape:version="1.0.2 (e86c870879, 2021-01-15)">
  <metadata
     id="metadata16">
    <rdf:RDF>
      <cc:Work
         rdf:about="">
        <dc:format>image/svg+xml</dc:format>
        <dc:type
           rdf:resource="http://purl.org/dc/dcmitype/StillImage" />
        <dc:title></dc:title>
      </cc:Work>
    </rdf:RDF>
  </metadata>
  <sodipodi:namedview
     pagecolor="#ffffff"
     bordercolor="#666666"
     borderopacity="1"
     objecttolerance="10"
     gridtolerance="10"
     guidetolerance="10"
     inkscape:pageopacity="0"
     inkscape:pageshadow="2"
     inkscape:window-width="1920"
     inkscape:window-height="996"
     id="namedview14"
     showgrid="true"
     inkscape:zoom="11.327307"
     inkscape:cx="-8.300159"
     inkscape:cy="15.095528"
     inkscape:window-x="0"
     inkscape:window-y="0"
     inkscape:window-maximized="1"
     inkscape:current-layer="Foreground">
    <inkscape:grid
       type="xygrid"
       id="grid860" />
  </sodipodi:namedview>
  <defs
     id="defs5">
    <filter
       id="filter839"
       x="-.048"
       y="-.048"
       width="1.096"
       height="1.096"
       color-interpolation-filters="sRGB">
      <feGaussianBlur
         stdDeviation="0.32"
         id="feGaussianBlur2" />
    </filter>
  </defs>
  <path
     id="path24091-60-6-2"
     class="st2"
     d="m 0.72726946,1.4545384 17.45446254,3e-7 V 2.181808 h 0.727269 v 14.545384 h -0.727269 v 0.727269 l -17.45446254,0 V 16.727192 H 4.6153846e-7 V 2.1818077 H 0.72726946 Z"
     sodipodi:nodetypes="ccccccccccccc"
     style="fill:#80192c;fill-opacity:1;stroke-width:0.727269" />
  <path
     id="path24091-7-6-1-8"
     style="fill:#000000;fill-opacity:0.35;stroke-width:0.727269"
     d="M 0.72726946,1.4545384 V 2.1818077 H 4.6153846e-7 V 16.727192 H 0.72726946 v 0.727269 l 17.45446254,0 v -0.727269 h 0.727269 V 2.181808 H 18.181732 V 1.4545387 Z m 0.72726904,0.7272693 15.9999235,3e-7 v 0.7272692 h 0.72727 V 15.999923 h -0.72727 v 0.727269 l -15.9999235,0 V 15.999923 H 0.72726946 V 2.9090769 H 1.4545385 Z"
     sodipodi:nodetypes="cccccccccccccccccccccccccc" />
  <circle
     cx="9.4545"
     cy="10.182"
     r="8"
     fill="#000000"
     filter="url(#filter839)"
     opacity=".1"
     stroke-width="0"
     id="circle7" />
  <path
     id="path2869-3-9-3"
     class="st4"
     d="m 5.6908814,5.2545202 h -0.436361 c -0.218181,0.2181808 -0.218181,0.5090885 0,0.7272692 L 8.6726856,9.3999541 5.2545204,12.81812 c -0.218181,0.21818 -0.218181,0.509088 0,0.727269 0.218181,0.218181 0.5090883,0.218181 0.727269,0 l 3.4181654,-3.418166 3.4181652,3.418166 c 0.218181,0.218181 0.509089,0.218181 0.72727,0 0.21818,-0.218181 0.21818,-0.509089 0,-0.727269 L 10.127224,9.3999541 13.54539,5.9817894 c 0.21818,-0.2181807 0.21818,-0.5090884 0,-0.7272692 -0.218181,-0.2181808 -0.509089,-0.2181808 -0.72727,0 L 9.3999548,8.6726856 5.9817894,5.2545202 h -0.436361 c 0,0 0.145453,0 0.145453,0 z"
     sodipodi:nodetypes="ccscssscssscsssccccc"
     style="fill:#ffffff;stroke-width:0.727269" />
</svg>
