<?xml version="1.0" encoding="UTF-8" standalone="no"?>
<svg
   xmlns:dc="http://purl.org/dc/elements/1.1/"
   xmlns:cc="http://creativecommons.org/ns#"
   xmlns:rdf="http://www.w3.org/1999/02/22-rdf-syntax-ns#"
   xmlns:svg="http://www.w3.org/2000/svg"
   xmlns="http://www.w3.org/2000/svg"
   xmlns:sodipodi="http://sodipodi.sourceforge.net/DTD/sodipodi-0.dtd"
   xmlns:inkscape="http://www.inkscape.org/namespaces/inkscape"
   id="Foreground"
   width="26"
   height="26"
   enable-background="new 0 0 16 16"
   version="1.0"
   viewBox="0 0 18.909 18.909"
   sodipodi:docname="close.svg"
   inkscape:version="1.0.2 (e86c870879, 2021-01-15)">
  <metadata
     id="metadata16">
    <rdf:RDF>
      <cc:Work
         rdf:about="">
        <dc:format>image/svg+xml</dc:format>
        <dc:type
           rdf:resource="http://purl.org/dc/dcmitype/StillImage" />
        <dc:title></dc:title>
      </cc:Work>
    </rdf:RDF>
  </metadata>
  <sodipodi:namedview
     pagecolor="#ffffff"
     bordercolor="#666666"
     borderopacity="1"
     objecttolerance="10"
     gridtolerance="10"
     guidetolerance="10"
     inkscape:pageopacity="0"
     inkscape:pageshadow="2"
     inkscape:window-width="1920"
     inkscape:window-height="996"
     id="namedview14"
     showgrid="true"
     inkscape:pagecheckerboard="true"
     inkscape:zoom="16.019231"
     inkscape:cx="6.0831194"
     inkscape:cy="18.751283"
     inkscape:window-x="0"
     inkscape:window-y="0"
     inkscape:window-maximized="1"
     inkscape:current-layer="Foreground">
    <inkscape:grid
       type="xygrid"
       id="grid934" />
  </sodipodi:namedview>
  <defs
     id="defs5">
    <filter
       id="filter879"
       x="-.048"
       y="-.048"
       width="1.096"
       height="1.096"
       color-interpolation-filters="sRGB">
      <feGaussianBlur
         stdDeviation="0.32"
         id="feGaussianBlur2" />
    </filter>
  </defs>
  <path
     id="path24091-60"
     class="st2"
     d="m 0.72726946,1.4545384 17.45446154,0 V 2.1818077 H 18.909 V 16.727192 h -0.727269 v 0.727269 l -17.45446154,0 V 16.727192 H 4.6153846e-7 V 2.1818077 H 0.72726946 Z"
     sodipodi:nodetypes="ccccccccccccc"
     style="fill:#bf6071;fill-opacity:1;stroke-width:0.727269" />
  <path
     id="path24091-7-6"
     style="fill:#ffffff;fill-opacity:0.35;stroke-width:0.727269"
     d="M 0.72726946,1.4545384 V 2.1818077 H 4.6153846e-7 V 16.727192 H 0.72726946 v 0.727269 l 17.45446154,0 V 16.727192 H 18.909 V 2.1818077 H 18.181731 V 1.4545384 Z m 0.72726904,0.7272693 15.9999235,0 v 0.7272692 h 0.727269 V 15.999923 h -0.727269 v 0.727269 l -15.9999235,0 V 15.999923 H 0.72726946 V 2.9090769 H 1.4545385 Z"
     sodipodi:nodetypes="cccccccccccccccccccccccccc" />
  <path
     id="path2869-3"
     class="st4"
     d="M 5.746147,5.5213647 H 5.309786 c -0.218181,0.2181808 -0.218181,0.5090885 0,0.7272692 L 8.727951,9.666799 5.309786,13.084965 c -0.218181,0.21818 -0.218181,0.509088 0,0.727269 0.218181,0.218181 0.509088,0.218181 0.727269,0 l 3.418165,-3.418166 3.418166,3.418166 c 0.218181,0.218181 0.509088,0.218181 0.727269,0 0.218181,-0.218181 0.218181,-0.509089 0,-0.727269 L 10.18249,9.666799 13.600655,6.2486339 c 0.218181,-0.2181807 0.218181,-0.5090884 0,-0.7272692 -0.218181,-0.2181808 -0.509088,-0.2181808 -0.727269,0 L 9.45522,8.93953 6.037055,5.5213647 H 5.600694 Z"
     sodipodi:nodetypes="ccscssscssscssscccc"
     style="fill:#ffffff;stroke-width:0.727269" />
  <circle
     cx="9.4545"
     cy="10.182"
     r="8"
     fill="#000000"
     filter="url(#filter879)"
     opacity=".1"
     stroke-width="0"
     id="circle7" />
  <g
     id="headerbar-bg"
     transform="matrix(0.72726923,0,0,0.72726923,-44.790998,-16.859519)" />
</svg>
