<svg xmlns="http://www.w3.org/2000/svg" width="32" height="34"><path d="M27 110h30v1h1v19h-1v1H27v-1h-1v-19h1z" style="fill:#511980;fill-opacity:1" transform="translate(-26 -103)"/><path d="M27 110v1h-1v19h1v1h30v-1h1v-19h-1v-1zm1 1h28v1h1v17h-1v1H28v-1h-1v-17h1z" style="fill:#000;fill-opacity:.35" transform="translate(-26 -103)"/><path d="M26 103h32v34H26z" style="fill:none" transform="translate(-26 -103)"/><path d="M37.7 119.8h9.2c.4 0 .7.3.7.7s-.3.7-.7.7h-9.2c-.4 0-.7-.3-.7-.7s.3-.7.7-.7" style="fill:#fff" transform="translate(-26 -103)"/></svg>