<svg xmlns="http://www.w3.org/2000/svg" width="32" height="34"><path d="M27 151h30v1h1v19h-1v1H27v-1h-1v-19h1z" style="fill:#a98fbf;fill-opacity:1" transform="translate(-26 -144)"/><path d="M27 151v1h-1v19h1v1h30v-1h1v-19h-1v-1zm1 1h28v1h1v17h-1v1H28v-1h-1v-17h1z" style="fill:#eee;fill-opacity:.5" transform="translate(-26 -144)"/><path d="M26 144h32v34H26z" style="fill:none" transform="translate(-26 -144)"/><path d="M40 159c-1.1 0-2 .9-2 2v2c0 1.1.9 2 2 2h2c1.1 0 2-.9 2-2v-2c0-1.1-.9-2-2-2zm0 1h2c.6 0 1 .4 1 1v2c0 .6-.4 1-1 1h-2c-.6 0-1-.4-1-1v-2c0-.6.4-1 1-1" style="fill:#fff" transform="translate(-26 -144)"/><path d="M42 157c-1.1 0-2 .9-2 2h1c0-.6.4-1 1-1h2c.6 0 1 .4 1 1v2c0 .6-.4 1-1 1v1c1.1 0 2-.9 2-2v-2c0-1.1-.9-2-2-2z" style="fill:#fff;isolation:isolate;opacity:.3" transform="translate(-26 -144)"/></svg>