<svg xmlns="http://www.w3.org/2000/svg" width="32" height="34"><path d="M27 69h30v1h1v19h-1v1H27v-1h-1V70h1z" style="fill:#7826bf;fill-opacity:1" transform="translate(-26 -62)"/><path d="M26 62h32v34H26z" style="fill:none" transform="translate(-26 -62)"/><path d="M37.1 77.4v5.2c0 1.4 1.2 2.6 2.6 2.6h5.2c1.4 0 2.6-1.2 2.6-2.6v-5.2c0-1.4-1.2-2.6-2.6-2.6h-5.2c-1.4 0-2.6 1.2-2.6 2.6m2.6-1.3h5.2c.8 0 1.3.5 1.3 1.3v5.2c0 .8-.5 1.3-1.3 1.3h-5.2c-.8 0-1.3-.5-1.3-1.3v-5.2c0-.8.5-1.3 1.3-1.3" style="fill:#fff" transform="translate(-26 -62)"/><path d="M27 69v1h-1v19h1v1h30v-1h1V70h-1v-1zm1 1h28v1h1v17h-1v1H28v-1h-1V71h1z" style="fill:#000;fill-opacity:.35" transform="translate(-26 -62)"/></svg>