<svg xmlns="http://www.w3.org/2000/svg" width="32" height="34"><path d="M256 1h32v34h-32z" style="fill:none" transform="translate(-256 -1)"/><path d="M264.5 8h15c1.4 0 2.5 1.1 2.5 2.5v15c0 1.4-1.1 2.5-2.5 2.5h-15c-1.4 0-2.5-1.1-2.5-2.5v-15c0-1.4 1.1-2.5 2.5-2.5" style="isolation:isolate;opacity:.2;fill:#0a0a0a;fill-opacity:1" transform="translate(-256 -1)"/><path d="M267 17c-.6 0-1 .4-1 1s.4 1 1 1 1-.4 1-1-.4-1-1-1m5 0c-.6 0-1 .4-1 1s.4 1 1 1 1-.4 1-1-.4-1-1-1m5 0c-.6 0-1 .4-1 1s.4 1 1 1 1-.4 1-1-.4-1-1-1" style="opacity:.8;isolation:isolate;fill:#121212;fill-opacity:1" transform="translate(-256 -1)"/></svg>