<svg xmlns="http://www.w3.org/2000/svg" width="32" height="34"><path d="M256 166h32v34h-32z" style="fill:none" transform="translate(-256 -166)"/><path d="M264.5 173h15c1.4 0 2.5 1.1 2.5 2.5v15c0 1.4-1.1 2.5-2.5 2.5h-15c-1.4 0-2.5-1.1-2.5-2.5v-15c0-1.4 1.1-2.5 2.5-2.5" style="isolation:isolate;opacity:.2;fill:#0a0a0a;fill-opacity:1" transform="translate(-256 -166)"/><path d="M272 177c-3.3 0-6 2.7-6 6s2.7 6 6 6 6-2.7 6-6-2.7-6-6-6m0 1c2.8 0 5 2.2 5 5s-2.2 5-5 5-5-2.2-5-5 2.2-5 5-5m0 3c-1.1 0-2 .9-2 2s.9 2 2 2 2-.9 2-2-.9-2-2-2" style="opacity:.8;isolation:isolate;fill:#000;fill-opacity:1" transform="translate(-256 -166)"/></svg>