/* XPM */
static char *button_inactive_Normal[] = {
/* columns rows colors chars-per-pixel */
"56 51 3 1 ",
"  c None",
". c gray20 s inactive_color_1",
"X c #343434",
/* pixels */
"                                                        ",
"                                                        ",
"                                                        ",
"                                                        ",
"  XXXXXXXXXXXXXXXXXXXXXXXXXXXXXXXXXXXXXXXXXXXXXXXXXX    ",
"  ...................................................   ",
"......................................................  ",
"......................................................  ",
"......................................................  ",
"......................................................  ",
"......................................................  ",
"......................................................  ",
"......................................................  ",
"......................................................  ",
"......................................................  ",
"......................................................  ",
"......................................................  ",
"......................................................  ",
"......................................................  ",
"......................................................  ",
"......................................................  ",
"......................................................  ",
"......................................................  ",
"......................................................  ",
"......................................................  ",
"......................................................  ",
"......................................................  ",
"......................................................  ",
"......................................................  ",
"......................................................  ",
"......................................................  ",
"......................................................  ",
"......................................................  ",
"......................................................  ",
"......................................................  ",
"......................................................  ",
"......................................................  ",
"......................................................  ",
"......................................................  ",
"......................................................  ",
"......................................................  ",
"......................................................  ",
"......................................................  ",
"......................................................  ",
"......................................................  ",
"  ...................................................   ",
"  XXXXXXXXXXXXXXXXXXXXXXXXXXXXXXXXXXXXXXXXXXXXXXXXXX    ",
"                                                        ",
"                                                        ",
"                                                        ",
"                                                        "
};
